<svg width="269" height="275" viewBox="0 0 269 275" fill="none" xmlns="http://www.w3.org/2000/svg">
<path d="M2.63649 180.638C1.00211 172.776 0 136.039 0 83.9778V0L10.954 1.50546C77.0222 10.5914 77.8281 65.0706 78.5871 116.375C78.6325 119.445 78.6778 122.503 78.7368 125.54C79.7068 179.431 79.8607 193.012 86.5337 201.417C88.8888 204.383 92.0558 206.705 96.3572 209.927C106.216 217.31 129.598 216.882 140.455 209.115C156.977 197.292 157.362 194.64 157.421 91.8929L157.474 0.0382947L167.614 1.59402C182.46 3.87016 206.028 16.1987 214.887 26.3204C235.448 49.809 235.738 78.4284 236.037 107.912C236.075 111.639 236.112 115.38 236.191 119.125C237.189 166.376 238.103 177.84 241.338 183.747C246.031 192.311 254.263 201.447 262.447 207.179L268.402 211.351L262.082 216.695C251.349 225.773 241.379 242.14 238.375 255.61L235.502 268.482L227.533 265.14C223.147 263.302 214.541 258.333 208.402 254.1C197.677 246.697 197.004 246.548 191.078 250.265C172.944 261.641 155.011 269.489 139.858 272.684C78.7416 285.573 15.6543 243.255 2.63649 180.638Z" fill="url(#paint0_linear_967_476)"/>
<defs>
<linearGradient id="paint0_linear_967_476" x1="-1.4967e-06" y1="137.268" x2="680" y2="137.268" gradientUnits="userSpaceOnUse">
<stop stop-color="#219EE4"/>
<stop offset="1" stop-color="#106AB4"/>
</linearGradient>
</defs>
</svg>
