<svg width="680" height="276" viewBox="0 0 680 276" fill="none" xmlns="http://www.w3.org/2000/svg">
<path fill-rule="evenodd" clip-rule="evenodd" d="M0 84.3299C0 136.392 1.00211 173.128 2.63649 180.99C15.6543 243.607 78.7416 285.925 139.858 273.036C155.011 269.841 172.944 261.993 191.078 250.617C197.004 246.9 197.677 247.049 208.402 254.452C214.541 258.686 223.147 263.654 227.533 265.492L235.502 268.834L238.375 255.962C241.379 242.492 251.349 226.126 262.082 217.047L268.402 211.703L262.447 207.531C254.263 201.799 246.031 192.663 241.338 184.099C238.103 178.193 237.189 166.728 236.191 119.477C235.487 86.0972 238.047 53.1299 214.887 26.6725C206.028 16.5507 182.46 4.22221 167.614 1.94607L157.474 0.390345L157.421 92.2449C157.362 194.992 156.977 197.644 140.455 209.467C129.598 217.234 106.216 217.662 96.3572 210.279C79.8678 197.929 80.0491 198.802 78.7368 125.892C77.691 72.1041 80.9751 11.4871 10.954 1.85751L0 0.352051V84.3299ZM276.772 71.7668C276.772 115.416 278.845 120.566 296.456 120.638C304.351 120.669 305.403 119.989 305.403 114.858C305.403 110.646 303.922 108.829 300.035 108.276C294.85 107.536 294.626 106.433 293.474 76.154C292.231 43.479 290.183 36.9043 281.253 36.9043C277.075 36.9043 276.772 39.257 276.772 71.7668ZM476.398 38.5007C474.225 40.6787 474.442 114.003 476.632 117.448C477.596 118.965 483.53 120.978 489.819 121.923C503.596 123.994 520.255 118.522 525.738 110.129C534.673 96.4525 532.247 71.3815 521.295 64.1821C514.4 59.6514 499.979 59.1583 495.023 63.2846C492.017 65.7881 491.509 64.6656 491.509 55.5179C491.509 42.4379 482.54 32.3377 476.398 38.5007ZM333.763 60.1899C330.332 60.6877 324.496 64.2659 320.793 68.1432C315.339 73.8539 313.893 77.8102 313.179 88.9588C312.077 106.189 317.651 116.435 330.427 120.664C349.262 126.899 366.164 116.301 368.863 96.5602C372.079 73.0162 356.518 56.8917 333.763 60.1899ZM406.807 60.3622C404.182 60.8959 400.31 62.8633 398.201 64.735C394.88 67.6861 393.966 67.6525 391.348 64.4884C389.688 62.4804 386.312 60.8385 383.849 60.8385C379.705 60.8385 379.368 63.0835 379.368 90.7562V120.674H386.281H393.195L394.035 100.136C394.732 83.1739 395.684 79.0093 399.508 76.2018C404.939 72.2192 405.657 72.1498 410.386 75.1463C413.022 76.817 414.184 83.1093 414.798 99.0446L415.633 120.674H422.552H429.474V102.92C429.474 82.5803 430.6 78.4373 437.066 74.9668C445.834 70.259 448.561 76.063 448.561 99.4252V120.674H456.912H465.263V96.5818C465.263 83.3318 464.211 70.5199 462.927 68.1121C460.114 62.8394 447.636 58.0813 441.933 60.1061C439.674 60.9103 435.947 63.184 433.649 65.1634C429.932 68.3658 429.016 68.361 425.298 65.1371C420.331 60.8265 413.373 59.0291 406.807 60.3622ZM553.544 60.6159C547.254 61.6858 545.193 63.2175 545.193 66.822C545.193 70.8813 547.18 71.7908 558.294 72.8056C567.833 73.6768 571.596 75.053 572.128 77.8677C572.691 80.8499 570.136 82.0944 560.936 83.3199C541.106 85.9574 533.227 101.443 544.83 114.973C549.521 120.442 552.422 121.536 562.668 121.689C579.615 121.94 587.277 114.398 588.801 95.9667C591.101 68.1336 579.248 56.2479 553.544 60.6159ZM350.653 77.4345C354.884 85.3662 353.636 101.012 348.351 106.313C342.605 112.077 341.391 112.17 334.567 107.374C330.232 104.329 329.263 101.354 329.263 91.0985C329.263 84.1959 330.552 77.2573 332.126 75.6777C336.662 71.1278 347.855 72.1881 350.653 77.4345ZM510.291 76.0247C514.729 81.3908 516.048 93.3818 512.866 99.4395C508.996 106.804 506.077 108.625 498.07 108.671C491.647 108.707 491.509 108.41 491.509 94.5163C491.509 84.8086 492.692 79.141 495.257 76.5656C499.855 71.9559 506.719 71.7094 510.291 76.0247ZM572.185 99.7315C571.553 106.318 570.382 107.632 564.541 108.3C558.387 109.004 553.689 105.916 553.58 101.098C553.496 97.3836 561.46 91.9529 566.989 91.9529C572.259 91.9529 572.849 92.8361 572.185 99.7315ZM612.227 121.076C610.134 124.073 608.421 127.287 608.421 128.216C608.421 131.621 616.049 137.428 620.52 137.428C626.566 137.428 626.447 133.546 620.351 131.947C614.152 130.322 614.212 125.372 620.449 123.735C623.126 123.034 624.918 121.248 624.426 119.772C622.789 114.841 616.08 115.559 612.227 121.076ZM632.758 118.759C631.183 120.339 629.895 124.625 629.895 128.287C629.895 133.495 631.274 135.291 636.232 136.537C646.608 139.151 652.903 127.342 645.234 119.647C640.751 115.15 636.647 114.858 632.758 118.759ZM653.917 118.18C650.486 120.308 651.435 136.478 654.947 135.707C656.26 135.42 657.674 132.44 658.092 129.084C659.032 121.533 663.298 123.582 663.298 131.586C663.298 134.8 664.372 137.428 665.684 137.428C666.996 137.428 668.07 134.197 668.07 130.248C668.07 121.349 672.248 120.722 673.281 129.465C674.448 139.369 680 139.434 680 129.544C680 124.987 678.659 120.224 677.018 118.958C673.424 116.184 657.975 115.665 653.917 118.18ZM641.825 126.516C641.825 128.414 640.863 130.561 639.689 131.289C637.232 132.811 634.271 126.655 636.423 124.499C638.983 121.93 641.825 122.991 641.825 126.516ZM316.539 131.844C313.926 134.462 314.737 195.947 317.488 203.86C322.043 216.968 344.772 221.47 344.772 209.264C344.772 205.212 343.25 203.022 340 202.404C337.375 201.904 334.438 200.274 333.474 198.781C332.51 197.287 331.706 183.039 331.685 167.118C331.654 142.143 331.05 137.626 327.285 134.209C322.654 130.003 319.142 129.23 316.539 131.844ZM515.368 171.852C515.368 218.996 514.094 216.308 536.482 216.377C559.895 216.451 571.727 203.264 569.747 179.305C568.804 167.886 567.413 164.32 562.129 159.761C555.011 153.619 539.86 152.111 534.933 157.054C532.707 159.287 532.07 157.693 532.07 149.874C532.07 139.357 525.979 130.248 518.947 130.248C515.903 130.248 515.368 136.466 515.368 171.852ZM596.491 134.036C596.491 136.121 597.765 137.402 599.326 136.88C603.749 135.401 604.482 130.248 600.268 130.248C598.192 130.248 596.491 131.952 596.491 134.036ZM363.409 158.854C351.45 166.168 347.375 185.842 354.638 201.196C362.268 217.327 385.19 221.834 398.544 209.829C419.09 191.361 407.442 154.167 381.12 154.191C375.327 154.196 367.773 156.185 363.409 158.854ZM417.544 185.296V216.411H425.895H434.246V197.105C434.246 176.323 436.739 168.542 443.396 168.542C451.441 168.542 453.333 173.674 453.333 195.499V216.715L461.088 215.963L468.842 215.214L469.544 194.99C470.271 173.956 472.369 168.542 479.786 168.542C486.644 168.542 489.123 176.17 489.123 197.259V216.715L496.877 215.963L504.632 215.214L505.269 193.673C506.106 165.428 501.909 155.745 488.345 154.625C482.759 154.163 476.89 155.398 473.23 157.805C467.773 161.391 466.878 161.403 463.085 157.959C457.84 153.198 444.042 153.074 437.419 157.729C432.96 160.859 432.029 160.859 429.438 157.729C427.823 155.778 424.487 154.182 422.025 154.182C417.871 154.182 417.544 156.453 417.544 185.296ZM584.903 156.312C582.812 157.64 582.261 160.254 583.345 163.679C584.793 168.257 586.155 168.774 593.249 167.441C603.654 165.481 610.809 167.705 610.802 172.891C610.797 175.694 608.664 176.993 603.79 177.166C585.902 177.798 574.621 189.609 579.532 202.565C582.92 211.509 591.29 216.411 603.169 216.411C611.473 216.411 614.961 215.006 620.535 209.415C627.022 202.905 627.509 201.148 627.509 184.174C627.509 167.997 626.846 165.266 621.651 160.058C616.77 155.158 613.496 154.189 601.967 154.218C594.363 154.239 586.682 155.182 584.903 156.312ZM387.55 169.909C392.682 175.06 392.596 195.619 387.421 200.81C377.925 210.336 366.36 198.783 368.379 181.79C370.018 168.006 379.681 162.018 387.55 169.909ZM551.074 173.171C557.757 185.698 550.974 202.05 539.092 202.05C532.185 202.05 532.07 201.84 532.07 189.083C532.07 181.95 532.721 174.411 533.518 172.329C535.618 166.838 548.013 167.434 551.074 173.171ZM611.714 189.619C613.882 193.139 607.159 203.247 602.645 203.247C596.16 203.247 592.392 196.234 596.324 191.481C599.607 187.515 609.666 186.297 611.714 189.619Z" fill="url(#paint0_linear_950_8321)"/>
<defs>
<linearGradient id="paint0_linear_950_8321" x1="-1.4967e-06" y1="137.62" x2="680" y2="137.62" gradientUnits="userSpaceOnUse">
<stop stop-color="#219EE4"/>
<stop offset="1" stop-color="#106AB4"/>
</linearGradient>
</defs>
</svg>
